<?xml version="1.0" encoding="UTF-8"?>
<svg id="Layer_2" xmlns="http://www.w3.org/2000/svg" version="1.1" viewBox="0 0 1190.88 842.04">
  <!-- Generator: Adobe Illustrator 29.8.2, SVG Export Plug-In . SVG Version: 2.1.1 Build 3)  -->
  <defs>
    <style>
      .st0 {
        fill: #fcd502;
      }

      .st0, .st1, .st2, .st3, .st4, .st5, .st6, .st7 {
        stroke: #231f20;
        stroke-miterlimit: 10;
      }

      .st0, .st1, .st2, .st3, .st5, .st6, .st7 {
        stroke-width: 5px;
      }

      .st1, .st8 {
        fill: #fed500;
      }

      .st2 {
        fill: #fcd500;
      }

      .st3 {
        fill: #fbd504;
      }

      .st4 {
        stroke-width: 4px;
      }

      .st4, .st6 {
        fill: none;
      }

      .st5 {
        fill: gold;
      }

      .st7 {
        fill: #fdd600;
      }
    </style>
  </defs>
  <g>
    <path class="st4" d="M381.1,265.96"/>
    <rect class="st0" x="386.86" y="270.49" width="47.52" height="35.26"/>
    <polygon class="st5" points="204.62 503.67 204.62 270.49 370.94 270.49 370.94 503.67 335.69 503.67 335.69 317.99 304.7 317.99 304.7 503.67 268.54 503.67 268.54 317.99 240.13 317.99 240.13 503.67 204.62 503.67"/>
    <rect class="st3" x="386.86" y="317.83" width="47.52" height="185.84"/>
    <polygon class="st3" points="450.29 503.67 450.29 270.49 556.13 270.49 556.13 503.67 520.6 503.67 520.6 317.99 486.35 317.99 486.35 503.67 450.29 503.67"/>
    <polygon class="st7" points="572.04 503.31 572.04 270.13 619.56 270.13 619.56 504.04 572.04 503.31"/>
    <g>
      <path class="st8" d="M862.06,327.93v175.21h-108.42v-233.01h47.71v57.8h60.71ZM820.35,463.31v-91.61h-21.39l.13,91.61h21.26Z"/>
      <g>
        <polygon class="st6" points="798.96 371.7 820.35 371.7 820.35 463.31 799.09 463.31 798.96 371.7"/>
        <polygon class="st6" points="753.64 270.13 801.35 270.13 801.35 327.93 862.06 327.93 862.06 503.14 753.64 503.14 753.64 270.13"/>
      </g>
    </g>
    <polygon class="st1" points="879.7 270.11 986.26 270.11 986.26 312.99 927.22 312.99 927.22 326.69 986.26 326.69 986.26 503.29 879.7 503.29 879.7 455.79 938.74 455.79 938.74 375.9 879.7 375.9 879.7 270.11"/>
    <path class="st2" d="M635.39,270.13v42.86h55.53v16.25h-55.53v174.44h103.12v-233.54h-103.12ZM691.16,462.52h-21.26l-.13-91.61h21.39v91.61Z"/>
  </g>
  <g>
    <path class="st4" d="M255.39,880.24"/>
    <rect class="st0" x="261.15" y="884.77" width="47.52" height="35.26" rx="6.85" ry="6.85"/>
    <path class="st5" d="M78.92,1111.1v-219.48c0-3.78,3.07-6.85,6.85-6.85h152.62c3.78,0,6.85,3.07,6.85,6.85v219.48c0,3.78-3.07,6.85-6.85,6.85h-21.55c-3.78,0-6.85-3.07-6.85-6.85v-171.98c0-3.78-3.07-6.85-6.85-6.85h-17.29c-3.78,0-6.85,3.07-6.85,6.85v171.98c0,3.78-3.07,6.85-6.85,6.85h-22.46c-3.78,0-6.85-3.07-6.85-6.85v-171.98c0-3.78-3.07-6.85-6.85-6.85h-14.71c-3.78,0-6.85,3.07-6.85,6.85v171.98c0,3.78-3.07,6.85-6.85,6.85h-21.8c-3.78,0-6.85-3.07-6.85-6.85Z"/>
    <rect class="st3" x="261.15" y="932.11" width="47.52" height="185.84" rx="6.85" ry="6.85"/>
    <path class="st3" d="M324.58,1111.1v-219.48c0-3.78,3.07-6.85,6.85-6.85h92.14c3.78,0,6.85,3.07,6.85,6.85v219.48c0,3.78-3.07,6.85-6.85,6.85h-21.83c-3.78,0-6.85-3.07-6.85-6.85v-171.98c0-3.78-3.07-6.85-6.85-6.85h-20.55c-3.78,0-6.85,3.07-6.85,6.85v171.98c0,3.78-3.07,6.85-6.85,6.85h-22.36c-3.78,0-6.85-3.07-6.85-6.85Z"/>
    <path class="st7" d="M446.33,1110.84v-219.58c0-3.78,3.07-6.85,6.85-6.85h33.82c3.78,0,6.85,3.07,6.85,6.85v220.1c0,3.82-3.13,6.91-6.96,6.85l-33.82-.51c-3.74-.06-6.75-3.11-6.75-6.85Z"/>
    <g>
      <path class="st8" d="M682.49,942.21h47.01c3.78,0,6.85,3.07,6.85,6.85v161.51c0,3.78-3.07,6.85-6.85,6.85h-94.72c-3.78,0-6.85-3.07-6.85-6.85v-219.3c0-3.79,3.07-6.86,6.85-6.86h34c3.79,0,6.86,3.07,6.86,6.86v44.09c0,3.79,3.06,6.85,6.85,6.85ZM694.64,1070.74v-77.91c0-3.79-3.07-6.85-6.85-6.85h-7.68c-3.78,0-6.85,3.07-6.85,6.86l.11,77.91c0,3.78,3.07,6.84,6.85,6.84h7.57c3.78,0,6.85-3.07,6.85-6.85Z"/>
      <g>
        <path class="st6" d="M680.11,985.98h7.68c3.78,0,6.85,3.06,6.85,6.85v77.91c0,3.78-3.07,6.85-6.85,6.85h-7.57c-3.78,0-6.84-3.06-6.85-6.84l-.11-77.91c0-3.79,3.07-6.86,6.85-6.86Z"/>
        <path class="st6" d="M634.78,884.41h34c3.79,0,6.86,3.07,6.86,6.86v44.09c0,3.79,3.06,6.85,6.85,6.85h47.01c3.78,0,6.85,3.07,6.85,6.85v161.51c0,3.78-3.07,6.85-6.85,6.85h-94.72c-3.78,0-6.85-3.07-6.85-6.85v-219.3c0-3.79,3.07-6.86,6.85-6.86Z"/>
      </g>
    </g>
    <path class="st1" d="M760.84,884.38h92.86c3.78,0,6.85,3.07,6.85,6.85v29.18c0,3.78-3.07,6.85-6.85,6.85h-45.34c-3.78,0-6.85,3.07-6.85,6.85h0c0,3.78,3.07,6.85,6.85,6.85h45.34c3.78,0,6.85,3.07,6.85,6.85v162.89c0,3.78-3.07,6.85-6.85,6.85h-92.86c-3.78,0-6.85-3.07-6.85-6.85v-33.8c0-3.78,3.07-6.85,6.85-6.85h45.34c3.78,0,6.85-3.07,6.85-6.85v-66.18c0-3.78-3.07-6.85-6.85-6.85h-45.34c-3.78,0-6.85-3.07-6.85-6.85v-92.09c0-3.78,3.07-6.85,6.85-6.85Z"/>
    <path class="st2" d="M509.68,891.26v29.15c0,3.78,3.07,6.85,6.85,6.85h41.82c3.78,0,6.85,3.07,6.85,6.85v2.55c0,3.78-3.07,6.85-6.85,6.85h-41.82c-3.78,0-6.85,3.07-6.85,6.85v160.74c0,3.78,3.07,6.85,6.85,6.85h89.42c3.78,0,6.85-3.07,6.85-6.85v-219.84c0-3.78-3.07-6.85-6.85-6.85h-89.42c-3.78,0-6.85,3.07-6.85,6.85ZM558.61,1076.8h-7.57c-3.78,0-6.85-3.06-6.85-6.84l-.11-77.91c0-3.79,3.06-6.86,6.85-6.86h7.67c3.78,0,6.85,3.07,6.85,6.85v77.91c0,3.78-3.07,6.85-6.85,6.85Z"/>
  </g>
</svg>